# xmcd
# 
# Track frame offsets:
#     150
#     17572
#     36135
#     53212
#     74132
#     94012
#     112185
#     131085
#     142522
#     160945
#     178325
#     197962
# 
# Disc length: 2914
# 
# Revision: 3
# Processed by: cddbd v1.5.2PL0 Copyright (c) Steve Scherf et al.
# Submitted via: fre:ac v1.0.17
# 
DISCID=af0b600c
DTITLE=Sandee - Irgendwenn, Irgendwo
DYEAR=2003
DGENRE=Rock
TTITLE0=Bereue Nüt
TTITLE1=Irgendwenn, Irgendwo
TTITLE2=En Ängu Bruch I Nid
TTITLE3=I Gibe Nid Uf
TTITLE4=Verchoufti Mi Seel
TTITLE5=Wind Womi Treit
TTITLE6=Ganz Vo Vor
TTITLE7=Wilde Weste
TTITLE8=Du Und I
TTITLE9=Was Immer Wird Si
TTITLE10=Z Zwöitä Läbe
TTITLE11=I Wünsche Dir
EXTD=
EXTT0=
EXTT1=
EXTT2=
EXTT3=
EXTT4=
EXTT5=
EXTT6=
EXTT7=
EXTT8=
EXTT9=
EXTT10=
EXTT11=
PLAYORDER=
